<?xml version="1.0" standalone="no"?><!DOCTYPE svg PUBLIC "-//W3C//DTD SVG 1.1//EN" "http://www.w3.org/Graphics/SVG/1.1/DTD/svg11.dtd"><svg t="1629183838722" class="icon" viewBox="0 0 1024 1024" version="1.1" xmlns="http://www.w3.org/2000/svg" p-id="4756" xmlns:xlink="http://www.w3.org/1999/xlink" width="200" height="200"><defs><style type="text/css"></style></defs><path d="M436.3 567.7c-20.4-11.8-46.5-4.8-58.3 15.6s-4.8 46.5 15.6 58.3c20.4 11.8 46.5 4.8 58.3-15.6 11.8-20.4 4.8-46.6-15.6-58.3z" fill="#F9DB88" p-id="4757"></path><path d="M768 130H256c-94.3 0-170.7 76.4-170.7 170.7v426.7C85.3 821.6 161.7 898 256 898h512c94.3 0 170.7-76.4 170.7-170.7V300.7c0-94.3-76.4-170.7-170.7-170.7z m2.4 285.7c-11.8 20.4-37.9 27.4-58.3 15.6L676.9 411c-1-0.5-2.2-0.2-2.7 0.7L525.8 668.6c-35.3 61.1-113.8 82.2-174.9 46.8-61.1-35.3-82.1-113.7-46.8-174.8 35.3-61.1 113.7-82.1 174.9-46.9 13 7.5 23.8 17.3 33 28.1l110.6-191.6c11.8-20.4 37.9-27.4 58.3-15.6l73.9 42.7c20.4 11.9 27.4 38 15.6 58.4z" fill="#009F72" p-id="4758"></path></svg>