<svg id="图层_1" data-name="图层 1" xmlns="http://www.w3.org/2000/svg" xmlns:xlink="http://www.w3.org/1999/xlink" viewBox="0 0 24 20.55"><defs><style>.cls-1{fill:none;}.cls-2{clip-path:url(#clip-path);}.cls-3{fill:#0080ff;}.cls-4{fill:#fff;}.cls-5{fill:#29aeff;}.cls-6{fill:#fff8e1;}.cls-7{fill:#337ac1;}</style><clipPath id="clip-path"><rect class="cls-1" x="1" y="0.55" width="22" height="19.45"/></clipPath></defs><title>云文件</title><g class="cls-2"><path class="cls-3" d="M22.06,20H1.92A.86.86,0,0,1,1,19.06V3.3a.87.87,0,0,1,.92-.91h20a.87.87,0,0,1,.92.91V19.06c.18.55-.19.91-.74.91"/><path class="cls-3" d="M12,6.42H1V1.47A.86.86,0,0,1,1.92.56H9.43a1.2,1.2,0,0,1,.91.73Zm0,0"/><path class="cls-4" d="M20.41,18.87H3.56A.86.86,0,0,1,2.65,18V4.77a.86.86,0,0,1,.91-.92h17a.86.86,0,0,1,.91.92V18a1.19,1.19,0,0,1-1.1.91"/><path class="cls-5" d="M22.06,20H1.92A.86.86,0,0,1,1,19.06V6.6a.86.86,0,0,1,.92-.91h20A.85.85,0,0,1,23,6.6V19.06a.86.86,0,0,1-.92.91"/></g><path class="cls-6" d="M8.88,12.83H3.56A.58.58,0,0,1,3,12.28a.49.49,0,0,1,.55-.55H8.88a.58.58,0,0,1,.55.55c-.19.37-.37.55-.55.55m0-3.3H3.56A.58.58,0,0,1,3,9a.49.49,0,0,1,.55-.55H8.88A.59.59,0,0,1,9.43,9a.58.58,0,0,1-.55.55"/><path class="cls-7" d="M18.81,17.17H15.35A1.37,1.37,0,0,1,14,15.75a1.4,1.4,0,0,1,1-1.38.27.27,0,0,0,.19-.23,1.36,1.36,0,0,1,1.31-1.26,1.32,1.32,0,0,1,1.19.84,2.16,2.16,0,0,0-1,1.82v0l-.34-.35a.28.28,0,0,0-.26-.07.24.24,0,0,0-.18.18.27.27,0,0,0,.06.26l.81.82a.27.27,0,0,0,.19.08h0a.23.23,0,0,0,.18-.08l.78-.87a.26.26,0,0,0,0-.37.27.27,0,0,0-.37,0l-.34.38v0a1.64,1.64,0,0,1,.88-1.47,1.21,1.21,0,0,1,.3-.11h0l.14,0h.18a1.63,1.63,0,0,1,0,3.25m0-3.77h-.24l-.12,0h-.07l-.13,0h0a1.82,1.82,0,0,0-1.66-1.13,1.86,1.86,0,0,0-1.8,1.56,1.91,1.91,0,0,0-1.24,1.83,1.89,1.89,0,0,0,1.83,1.94h3.46a2.15,2.15,0,0,0,0-4.29"/></svg>