<svg id="图层_1" data-name="图层 1" xmlns="http://www.w3.org/2000/svg" xmlns:xlink="http://www.w3.org/1999/xlink" viewBox="0 0 24 20.55"><defs><style>.cls-1{fill:none;}.cls-2{clip-path:url(#clip-path);}.cls-3{fill:#ed4390;}.cls-4{fill:#dce1fe;}.cls-5{fill:#fff;}</style><clipPath id="clip-path"><rect class="cls-1" x="1" y="0.86" width="22" height="18.83"/></clipPath></defs><title>-css</title><g class="cls-2"><path class="cls-3" d="M17.58.87H2a1,1,0,0,0-1,1v16.8a1,1,0,0,0,1,1H22a1,1,0,0,0,.71-.29,1,1,0,0,0,.29-.71V5.74L17.58.87Zm0,0"/></g><path class="cls-4" d="M18.58,5.79a1,1,0,0,1-1-1V.89L23,5.76Zm0,0"/><path class="cls-5" d="M9.46,12.5a2.12,2.12,0,0,1-2.24,1.67c-1.68,0-2.52-1.26-2.52-2.83A2.59,2.59,0,0,1,7.25,8.47a2,2,0,0,1,2.21,1.69H8.64a1.34,1.34,0,0,0-1.42-1c-1.18,0-1.66,1.07-1.66,2.18S6,13.5,7.25,13.5a1.37,1.37,0,0,0,1.39-1Z"/><path class="cls-5" d="M11,12.54a1.22,1.22,0,0,0,1.36,1c.82,0,1.15-.37,1.15-.88s-.27-.82-1.35-1.08c-1.35-.33-1.79-.8-1.79-1.57S11,8.47,12.29,8.47a1.75,1.75,0,0,1,2,1.51h-.84a1,1,0,0,0-1.17-.86c-.64,0-1,.28-1,.79s.3.69,1.25.92c1.59.38,1.89,1,1.89,1.72,0,.92-.69,1.62-2.07,1.62a1.9,1.9,0,0,1-2.14-1.63Z"/><path class="cls-5" d="M16,12.54a1.23,1.23,0,0,0,1.36,1c.83,0,1.16-.37,1.16-.88s-.27-.82-1.36-1.08c-1.34-.33-1.78-.8-1.78-1.57S16,8.47,17.23,8.47a1.75,1.75,0,0,1,2,1.51h-.84a1,1,0,0,0-1.17-.86c-.64,0-1,.28-1,.79s.3.69,1.26.92c1.59.38,1.88,1,1.88,1.72,0,.92-.68,1.62-2.06,1.62a1.9,1.9,0,0,1-2.15-1.63Z"/></svg>