<?xml version="1.0" standalone="no"?><!DOCTYPE svg PUBLIC "-//W3C//DTD SVG 1.1//EN" "http://www.w3.org/Graphics/SVG/1.1/DTD/svg11.dtd"><svg t="1629363188251" class="icon" viewBox="0 0 1024 1024" version="1.1" xmlns="http://www.w3.org/2000/svg" p-id="2521" data-spm-anchor-id="a313x.7781069.0.i4" xmlns:xlink="http://www.w3.org/1999/xlink" width="200" height="200"><defs><style type="text/css"></style></defs><path d="M679 732.08H374.09c-14.81 0-29.74 0.43-44.53-0.47-6-0.36-11.92-1-17.86-1.72l8 1.07a253.41 253.41 0 0 1-63.46-17.2l7.15 3a254.25 254.25 0 0 1-33.43-17.11q-7.83-4.78-15.29-10.13c-1.24-0.89-2.48-1.79-3.7-2.7a11 11 0 0 1-2.09-1.57c-0.22-0.49 5.69 4.51 3.47 2.68-2.53-2.07-5.11-4.07-7.61-6.18a252.06 252.06 0 0 1-26.1-25.57q-3-3.44-5.93-7c-1-1.18-1.91-2.37-2.87-3.56-3.7-4.61 4.19 5.65 0.7 0.87-3.61-4.94-7.14-9.91-10.44-15.07a253.9 253.9 0 0 1-19.89-37.87l3 7.15A253.53 253.53 0 0 1 126 537.29l1.07 8a257.81 257.81 0 0 1 0-66.49l-1.07 8a253.41 253.41 0 0 1 17.2-63.46l-3 7.15A253 253 0 0 1 157.28 397q4.77-7.83 10.13-15.29c0.89-1.24 1.79-2.48 2.7-3.7a11 11 0 0 1 1.57-2.09c0.49-0.22-4.51 5.69-2.68 3.47 2.07-2.53 4.07-5.11 6.18-7.61a252.06 252.06 0 0 1 25.57-26.1q3.42-3 7-5.93c1.18-1 2.38-1.91 3.57-2.87 4.61-3.7-5.65 4.19-0.88 0.7 4.94-3.61 9.92-7.14 15.07-10.44a254 254 0 0 1 37.88-19.89l-7.15 3A253.41 253.41 0 0 1 319.66 293l-8 1.07c19.24-2.5 38.48-2.19 57.81-2.19h277c15.69 0 31.51-0.49 47.17 0.42 6.21 0.36 12.4 1 18.56 1.77l-8-1.07a253.41 253.41 0 0 1 63.46 17.2l-7.15-3a252.42 252.42 0 0 1 33.43 17.11q7.83 4.77 15.3 10.13 1.86 1.34 3.7 2.7a11.62 11.62 0 0 1 2.09 1.57c0.21 0.49-5.7-4.51-3.47-2.68 2.52 2.07 5.11 4.07 7.6 6.18a251.07 251.07 0 0 1 26.1 25.57q3 3.42 5.93 7c1 1.18 1.91 2.38 2.87 3.57 3.7 4.61-4.19-5.65-0.7-0.88 3.61 4.94 7.15 9.92 10.44 15.07a252.15 252.15 0 0 1 19.89 37.88l-3-7.15A253 253 0 0 1 898 486.71l-1.07-8a256.92 256.92 0 0 1 0 66.49l1.07-8a253.1 253.1 0 0 1-17.2 63.46l3-7.15A254.07 254.07 0 0 1 866.71 627q-4.79 7.83-10.13 15.3-1.33 1.86-2.7 3.7c-0.34 0.44-1.19 1.92-1.58 2.09s4.52-5.7 2.69-3.47c-2.08 2.53-4.08 5.11-6.19 7.61a251.94 251.94 0 0 1-25.56 26.1q-3.43 3-7 5.92c-1.18 1-2.38 1.92-3.56 2.87-4.61 3.71 5.64-4.18 0.87-0.69-4.94 3.61-9.92 7.14-15.07 10.44a254 254 0 0 1-37.88 19.89l7.15-3A253.41 253.41 0 0 1 704.32 731l8-1.07a264 264 0 0 1-33.32 2.15c-15.65 0-30.65 13.74-29.93 29.93s13.15 30 29.93 29.93c52.8-0.14 105.77-15.09 150.25-43.71 42.89-27.62 78.9-66.86 101.07-113 22.95-47.73 33.27-101.7 26.7-154.48a297.32 297.32 0 0 0-22.32-82.43c-10.2-23.63-24.08-45-40.26-64.92-32.53-40.09-77-69.8-125.67-86.63-31.41-10.87-64.53-14.76-97.64-14.76h-323.6A289.86 289.86 0 0 0 225.26 259c-46.7 21.53-86.44 57.27-114.75 100-29 43.8-44.61 96.36-45.51 148.78a280 280 0 0 0 40.89 150c26.79 43.61 65.81 80.41 111.6 103.47a285.9 285.9 0 0 0 128.89 30.67H679c15.66 0 30.66-13.76 29.94-29.93s-13.12-29.91-29.94-29.91z" fill="#cdcdcd" p-id="2522" data-spm-anchor-id="a313x.7781069.0.i5" class="selected"></path><path d="M512 512m-60 0a60 60 0 1 0 120 0 60 60 0 1 0-120 0Z" fill="#cdcdcd" p-id="2523" data-spm-anchor-id="a313x.7781069.0.i7" class="selected"></path><path d="M703.33 512m-60 0a60 60 0 1 0 120 0 60 60 0 1 0-120 0Z" fill="#cdcdcd" p-id="2524" data-spm-anchor-id="a313x.7781069.0.i6" class="selected"></path><path d="M322.02 512m-60 0a60 60 0 1 0 120 0 60 60 0 1 0-120 0Z" fill="#cdcdcd" p-id="2525" data-spm-anchor-id="a313x.7781069.0.i8" class="selected"></path></svg>