<svg id="图层_1" data-name="图层 1" xmlns="http://www.w3.org/2000/svg" xmlns:xlink="http://www.w3.org/1999/xlink" viewBox="0 0 24 20.55"><defs><style>.cls-1{fill:none;}.cls-2{clip-path:url(#clip-path);}.cls-3{fill:#84b915;}.cls-4{fill:#fff;}.cls-5{fill:#c5e4ac;}</style><clipPath id="clip-path"><rect class="cls-1" x="1" y="0.86" width="22" height="18.83"/></clipPath></defs><title>epud</title><g class="cls-2"><path class="cls-3" d="M17.58.87H2a1,1,0,0,0-1,1v16.8a1,1,0,0,0,1,1H22a1,1,0,0,0,.71-.29,1,1,0,0,0,.29-.71V5.74L17.58.87Zm0,0"/></g><path class="cls-4" d="M7.55,7.34l7.27-2,1.61,3.85-4.46,2-.37-.81,3.67-1.65-1-2.32L8.7,8l2.2,6.28,4.78-1.92.34.82-5.65,2.28Zm0,0"/><path class="cls-5" d="M18.58,5.77a1,1,0,0,1-.71-.3,1,1,0,0,1-.29-.7V.87L23,5.74Zm0,0"/></svg>