<svg id="图层_1" data-name="图层 1" xmlns="http://www.w3.org/2000/svg" xmlns:xlink="http://www.w3.org/1999/xlink" viewBox="0 0 22 19.45"><defs><style>.cls-1{fill:none;}.cls-2{clip-path:url(#clip-path);}.cls-3{fill:#1965db;}.cls-4{fill:#fff;}.cls-5{fill:#4690f7;}</style><clipPath id="clip-path"><rect class="cls-1" x="1" y="0.73" width="20" height="18"/></clipPath></defs><title>文件加转换</title><g class="cls-2"><path class="cls-3" d="M1,1.58A.79.79,0,0,1,1.83.73H8.66a1.1,1.1,0,0,1,.83.68l.32,1H20a.79.79,0,0,1,.83.85V17.85c.17.51-.16.85-.66.85H1.83A.79.79,0,0,1,1,17.85Zm0,0"/><path class="cls-4" d="M18.65,17.68H3.33a.79.79,0,0,1-.83-.84V4.63a.78.78,0,0,1,.83-.84H18.82a.78.78,0,0,1,.83.84V16.84a1.08,1.08,0,0,1-1,.84"/><path class="cls-5" d="M20.15,18.7H1.83A.79.79,0,0,1,1,17.85V6.33a.79.79,0,0,1,.83-.85H20c.67-.17,1,.34,1,.85V17.85a.79.79,0,0,1-.83.85"/></g><path class="cls-4" d="M8.16,12.09H3.33a.53.53,0,0,1-.5-.51.45.45,0,0,1,.5-.51H8.16a.53.53,0,0,1,.5.51c-.17.34-.33.51-.5.51M8.16,9H3.33a.53.53,0,0,1-.5-.51A.45.45,0,0,1,3.33,8H8.16a.51.51,0,0,1,0,1"/><path class="cls-3" d="M18.39,13.94a.35.35,0,0,1,.35.35v2.16a.35.35,0,0,1-.35.35H16.1a.35.35,0,0,1-.34-.35V14.29a.35.35,0,0,1,.34-.35Zm-5,.06h.08l0,0a.05.05,0,0,1,0,0h0l0,0v0l0,0h0l.24.46a.26.26,0,0,1-.07.31.23.23,0,0,1-.32,0,.57.57,0,0,0,0,.13,1.22,1.22,0,0,0,1.39,1,.23.23,0,0,1,.26.21.25.25,0,0,1-.19.28h-.25A1.69,1.69,0,0,1,13,15.08a1.51,1.51,0,0,1,0-.37l-.07,0a.25.25,0,0,1-.1-.48l.48-.22h.1Zm4.81.43h-2v1.88h2Zm-2.94-3.79a.35.35,0,0,1,.35.35v2.16a.35.35,0,0,1-.35.35H13a.35.35,0,0,1-.34-.35V11a.34.34,0,0,1,.34-.35Zm1.13.32a1.7,1.7,0,0,1,1.93,1.39,1.56,1.56,0,0,1,0,.37.25.25,0,0,1,.17.46l-.48.23h-.19l0,0,0,0,0,0s0,0,0,0l0,0-.24-.45a.25.25,0,0,1,0-.19.23.23,0,0,1,.12-.15.25.25,0,0,1,.29.05c0-.05,0-.09,0-.13a1.21,1.21,0,0,0-1.39-1,.24.24,0,0,1-.23-.09.28.28,0,0,1,0-.25.24.24,0,0,1,.2-.15Zm-1.27.17h-2V13h2Zm0,0"/></svg>