<svg id="图层_1" data-name="图层 1" xmlns="http://www.w3.org/2000/svg" xmlns:xlink="http://www.w3.org/1999/xlink" viewBox="0 0 24 20.55"><defs><style>.cls-1{fill:none;}.cls-2{clip-path:url(#clip-path);}.cls-3{fill:#ffa000;}.cls-4{fill:#fff;}.cls-5{fill:#ffca28;}.cls-6{fill:#fff8e1;}</style><clipPath id="clip-path"><rect class="cls-1" x="1.5" y="0.91" width="21" height="18.74"/></clipPath></defs><title>文件夹</title><g class="cls-2"><path class="cls-3" d="M21.56,19.62H2.42a.92.92,0,0,1-.92-.92V3.53a.92.92,0,0,1,.92-.92H21.56a.92.92,0,0,1,.92.92V18.7a.92.92,0,0,1-.92.92Zm0,0"/><path class="cls-3" d="M12,6.58H1.5V1.84A.93.93,0,0,1,2.42.91H9.6a.91.91,0,0,1,.88.66l1.51,5Zm0,0"/><path class="cls-4" d="M20.14,18.49H3.84a.92.92,0,0,1-.92-.91V5.22a.92.92,0,0,1,.92-.91h16.3a.92.92,0,0,1,.92.91V17.58a.92.92,0,0,1-.92.91Zm0,0"/><path class="cls-5" d="M21.56,19.62H2.42a.92.92,0,0,1-.92-.91V6.92A.92.92,0,0,1,2.42,6H21.56a.92.92,0,0,1,.92.91V18.71a.92.92,0,0,1-.92.91Zm0,0"/></g><path class="cls-6" d="M9,9.47H3.68A.46.46,0,0,1,3.2,9a.47.47,0,0,1,.48-.46H9A.47.47,0,0,1,9.44,9,.47.47,0,0,1,9,9.47Zm0,3.06H3.68a.46.46,0,1,1,0-.91H9a.47.47,0,0,1,.49.46.46.46,0,0,1-.47.45Zm0,0"/></svg>