<svg id="图层_1" data-name="图层 1" xmlns="http://www.w3.org/2000/svg" xmlns:xlink="http://www.w3.org/1999/xlink" viewBox="0 0 24 20.55"><defs><style>.cls-1{fill:none;}.cls-2{clip-path:url(#clip-path);}.cls-3{fill:#f7622d;}.cls-4{fill:#fff;}.cls-5{fill:#feb5a0;}</style><clipPath id="clip-path"><rect class="cls-1" x="1" y="0.86" width="22" height="18.83"/></clipPath></defs><title>HTML</title><g class="cls-2"><path class="cls-3" d="M17.58.87H2a1,1,0,0,0-.71.29A1,1,0,0,0,1,1.87v16.8a1,1,0,0,0,.29.7,1,1,0,0,0,.71.29H22a1,1,0,0,0,.71-.29,1,1,0,0,0,.29-.7V5.74L17.58.87Zm0,0"/></g><path class="cls-4" d="M9,7.87l0,0a.36.36,0,0,0-.26-.11.34.34,0,0,0-.25.11L6.16,10.15a.32.32,0,0,0-.11.25.33.33,0,0,0,.11.26L8.48,13a.34.34,0,0,0,.25.11A.36.36,0,0,0,9,13l0,0a.36.36,0,0,0,.11-.26A.36.36,0,0,0,9,12.43l-2-2,2-2a.36.36,0,0,0,.11-.25A.36.36,0,0,0,9,7.87m4.49-1.33a.34.34,0,0,0-.28,0,.37.37,0,0,0-.19.2l-2.52,7a.34.34,0,0,0,0,.28.35.35,0,0,0,.2.18l.06,0a.39.39,0,0,0,.28,0,.35.35,0,0,0,.18-.2l2.53-7a.36.36,0,0,0-.21-.46l-.07,0Zm4.42,3.61L15.62,7.83a.36.36,0,0,0-.25-.11.36.36,0,0,0-.26.11l0,0a.36.36,0,0,0-.11.26.36.36,0,0,0,.11.25l2,2-2,2a.36.36,0,0,0-.11.25.36.36,0,0,0,.11.26l0,0a.36.36,0,0,0,.25.11.36.36,0,0,0,.26-.11l2.32-2.32a.36.36,0,0,0,.11-.26.36.36,0,0,0-.11-.25"/><path class="cls-5" d="M18.58,5.77a1.05,1.05,0,0,1-.71-.29,1,1,0,0,1-.29-.71V.87L23,5.74Zm0,0"/></svg>