<svg id="图层_1" data-name="图层 1" xmlns="http://www.w3.org/2000/svg" xmlns:xlink="http://www.w3.org/1999/xlink" viewBox="0 0 24 20.55"><defs><style>.cls-1{fill:none;}.cls-2{clip-path:url(#clip-path);}.cls-3{fill:#fccb00;}.cls-4{fill:#dce1fe;}.cls-5{fill:#fff;}</style><clipPath id="clip-path"><rect class="cls-1" x="1" y="0.86" width="22" height="18.83"/></clipPath></defs><title>图片</title><g class="cls-2"><path class="cls-3" d="M17.58.87H2a1,1,0,0,0-1,1v16.8a1,1,0,0,0,1,1H22a1,1,0,0,0,.71-.29,1,1,0,0,0,.29-.71V5.74L17.58.87Zm0,0"/></g><path class="cls-4" d="M18.58,5.79a1,1,0,0,1-1-1V.89L23,5.76Zm0,0"/><path class="cls-5" d="M14.66,7.25,20,15.9H9.34Zm0,0"/><path class="cls-5" d="M7.34,9.25l3.33,6.65H4Zm0,0"/><path class="cls-5" d="M6,6a1.34,1.34,0,0,0,.66,1.16,1.33,1.33,0,1,0,0-2.31A1.33,1.33,0,0,0,6,6ZM6,6"/></svg>