<svg id="图层_1" data-name="图层 1" xmlns="http://www.w3.org/2000/svg" xmlns:xlink="http://www.w3.org/1999/xlink" viewBox="0 0 24 20.55"><defs><style>.cls-1{fill:none;}.cls-2{clip-path:url(#clip-path);}.cls-3{fill:#7041ef;}.cls-4{fill:#dce1fe;}.cls-5{fill:#fff;}</style><clipPath id="clip-path"><rect class="cls-1" x="1" y="0.86" width="22" height="18.83"/></clipPath></defs><title>-js</title><g class="cls-2"><path class="cls-3" d="M17.58.87H2a1,1,0,0,0-1,1v16.8a1,1,0,0,0,1,1H22a1,1,0,0,0,.71-.29,1,1,0,0,0,.29-.71V5.74L17.58.87Zm0,0"/></g><path class="cls-4" d="M18.58,5.79a1,1,0,0,1-1-1V.89L23,5.76Zm0,0"/><path class="cls-5" d="M13.22,11.33c0,1.89-.72,2.6-2.19,2.6a4.31,4.31,0,0,1-.93-.09v-1a5.39,5.39,0,0,0,.78.06c1,0,1.11-.71,1.11-1.5V5.48h1.23Z"/></svg>