<svg id="图层_1" data-name="图层 1" xmlns="http://www.w3.org/2000/svg" xmlns:xlink="http://www.w3.org/1999/xlink" viewBox="0 0 24 20.55"><defs><style>.cls-1{fill:none;}.cls-2{clip-path:url(#clip-path);}.cls-3{fill:#1965db;}.cls-4{fill:#fff;}.cls-5{fill:#4690f7;}</style><clipPath id="clip-path"><rect class="cls-1" x="1" y="0.55" width="22" height="19.45"/></clipPath></defs><title>本地文件夹</title><g class="cls-2"><path class="cls-3" d="M1,1.47A.86.86,0,0,1,1.92.56H9.43a1.2,1.2,0,0,1,.91.73l.35,1.1H21.88a.87.87,0,0,1,.92.91V19.06c.18.55-.19.91-.74.91H1.92A.86.86,0,0,1,1,19.06Zm0,0"/><path class="cls-4" d="M20.41,18.87H3.56A.86.86,0,0,1,2.65,18V4.77a.86.86,0,0,1,.91-.92h17a.86.86,0,0,1,.91.92V18a1.19,1.19,0,0,1-1.1.91"/><path class="cls-5" d="M22.06,20H1.92A.86.86,0,0,1,1,19.06V6.6a.86.86,0,0,1,.92-.91h20A.85.85,0,0,1,23,6.6V19.06a.86.86,0,0,1-.92.91"/></g><path class="cls-4" d="M8.88,12.83H3.56A.58.58,0,0,1,3,12.28a.49.49,0,0,1,.55-.55H8.88a.58.58,0,0,1,.55.55c-.19.37-.37.55-.55.55m0-3.3H3.56A.58.58,0,0,1,3,9a.49.49,0,0,1,.55-.55H8.88A.59.59,0,0,1,9.43,9a.58.58,0,0,1-.55.55"/><path class="cls-3" d="M20.2,17.37a.29.29,0,0,0-.13.22.07.07,0,0,1-.07.06H14.88s0,0,0,0l.82-3.26a.09.09,0,0,1,.06,0h5.2a0,0,0,0,1,0,0l-.77,3Zm-5.36-5h1.55l.22.41A.45.45,0,0,0,17,13h3a.06.06,0,0,1,.06,0v.65a.3.3,0,0,0,0,.1H15.73a.61.61,0,0,0-.59.43l-.37,1.5V12.4a.07.07,0,0,1,.07-.06Zm6.59,1.73A.6.6,0,0,0,21,13.8H20.6a.3.3,0,0,0,0-.1V13a.6.6,0,0,0-.62-.59H17.07l-.19-.36a.58.58,0,0,0-.49-.29H14.85a.61.61,0,0,0-.63.6v5.22a.6.6,0,0,0,.6.58h5.26a.59.59,0,0,0,.58-.43l.84-3.27a.56.56,0,0,0-.07-.42Zm0,0"/></svg>