<svg id="图层_1" data-name="图层 1" xmlns="http://www.w3.org/2000/svg" viewBox="0 0 24 24"><defs><style>.cls-1{fill:#90969d;}</style></defs><title>关锁</title><path class="cls-1" d="M12.24,18.11h-.48a.7.7,0,0,1-.49-.2.71.71,0,0,1-.21-.5V14.58a.7.7,0,0,1,.71-.7h.47a.7.7,0,0,1,.7.7v2.83a.71.71,0,0,1-.21.5.66.66,0,0,1-.49.2Zm4.46-9C16.7,6.29,14.89,4,12.07,4A4.78,4.78,0,0,0,7.3,8.77v1.35h9.4ZM5.42,17.64A2.35,2.35,0,0,0,7.77,20h8.46a2.35,2.35,0,0,0,2.35-2.35V12.83a.83.83,0,0,0-.25-.59.78.78,0,0,0-.58-.24H6.26a.84.84,0,0,0-.84.83Zm.94,4.24a2.83,2.83,0,0,1-2.82-2.83V11.63a1.51,1.51,0,0,1,1.51-1.51h.37V8.71a6.58,6.58,0,1,1,13.16,0v1.41H19a1.5,1.5,0,0,1,1.51,1.5v7.43a2.83,2.83,0,0,1-2.82,2.83Zm0,0"/><path class="cls-1" d="M12.24,18.11h-.48a.7.7,0,0,1-.49-.2.71.71,0,0,1-.21-.5V14.58a.7.7,0,0,1,.71-.7h.47a.7.7,0,0,1,.7.7v2.83a.71.71,0,0,1-.21.5.66.66,0,0,1-.49.2Zm4.46-9C16.7,6.29,14.89,4,12.07,4A4.78,4.78,0,0,0,7.3,8.77v1.35h9.4ZM5.42,17.64A2.35,2.35,0,0,0,7.77,20h8.46a2.35,2.35,0,0,0,2.35-2.35V12.83a.83.83,0,0,0-.25-.59.78.78,0,0,0-.58-.24H6.26a.84.84,0,0,0-.84.83Zm.94,4.24a2.83,2.83,0,0,1-2.82-2.83V11.63a1.51,1.51,0,0,1,1.51-1.51h.37V8.71a6.58,6.58,0,1,1,13.16,0v1.41H19a1.5,1.5,0,0,1,1.51,1.5v7.43a2.83,2.83,0,0,1-2.82,2.83Zm0,0"/></svg>