<svg id="图层_1" data-name="图层 1" xmlns="http://www.w3.org/2000/svg" xmlns:xlink="http://www.w3.org/1999/xlink" viewBox="0 0 24 20.55"><defs><style>.cls-1{fill:none;}.cls-2{clip-path:url(#clip-path);}.cls-3{fill:#1c6607;}.cls-4{fill:#dce1fe;}.cls-5{fill:#fff;}</style><clipPath id="clip-path"><rect class="cls-1" x="1" y="0.86" width="22" height="18.83"/></clipPath></defs><title>-md</title><g class="cls-2"><path class="cls-3" d="M17.58.87H2a1,1,0,0,0-1,1v16.8a1,1,0,0,0,1,1H22a1,1,0,0,0,.71-.29,1,1,0,0,0,.29-.71V5.74L17.58.87Zm0,0"/></g><path class="cls-4" d="M18.58,5.79a1,1,0,0,1-1-1V.89L23,5.76Zm0,0"/><path class="cls-5" d="M15,10.63c0-1.52,0-3.1.05-4H15c-.36,1.42-1.61,4.84-2.54,7.46H11.32c-.7-2.16-2-6-2.37-7.47h0c.07,1,.1,2.78.1,4.21V14.1H7.85V5.77H9.7c.88,2.51,2,5.73,2.24,6.82h0c.2-.85,1.48-4.37,2.4-6.82h1.79V14.1H15Z"/></svg>