<svg id="图层_1" data-name="图层 1" xmlns="http://www.w3.org/2000/svg" xmlns:xlink="http://www.w3.org/1999/xlink" viewBox="0 0 24 20.55"><defs><style>.cls-1{fill:none;}.cls-2{clip-path:url(#clip-path);}.cls-3{fill:#00afbe;}.cls-4{fill:#dce1fe;}.cls-5{fill:#fff;}</style><clipPath id="clip-path"><rect class="cls-1" x="1" y="0.86" width="22" height="18.83"/></clipPath></defs><title>音乐</title><g class="cls-2"><path class="cls-3" d="M17.58.87H2a1,1,0,0,0-1,1v16.8a1,1,0,0,0,1,1H22a1,1,0,0,0,.71-.29,1,1,0,0,0,.29-.71V5.74L17.58.87Zm0,0"/></g><path class="cls-4" d="M18.58,5.79a1,1,0,0,1-1-1V.89L23,5.76Zm0,0"/><path class="cls-5" d="M15.63,7.82a2.6,2.6,0,0,1-1.53.51,1.82,1.82,0,0,1-1.35-.65v5.45a2.21,2.21,0,0,1-1.66,2.12A2.17,2.17,0,0,1,8.33,14a2.12,2.12,0,0,1,1.6-2.55,2.25,2.25,0,0,1,1.45,0,.19.19,0,0,0,.23-.18V5.76a.5.5,0,0,1,.17-.4.59.59,0,0,1,.4-.17.54.54,0,0,1,.51.32v0s0,0,0,0a2.49,2.49,0,0,0,2.38,1.69h.31a.34.34,0,0,1,.23.59Zm0,0"/></svg>