<svg id="图层_1" data-name="图层 1" xmlns="http://www.w3.org/2000/svg" xmlns:xlink="http://www.w3.org/1999/xlink" viewBox="0 0 24 20.55"><defs><style>.cls-1{fill:none;}.cls-2{clip-path:url(#clip-path);}.cls-3{fill:#828282;}.cls-4{fill:#dce1fe;}.cls-5{fill:#fff;}</style><clipPath id="clip-path"><rect class="cls-1" x="1" y="0.86" width="22" height="18.83"/></clipPath></defs><title>未知文件</title><g class="cls-2"><path class="cls-3" d="M17.58.87H2a1,1,0,0,0-1,1v16.8a1,1,0,0,0,1,1H22a1,1,0,0,0,.71-.29,1,1,0,0,0,.29-.71V5.74L17.58.87Zm0,0"/></g><path class="cls-4" d="M18.58,5.79a1,1,0,0,1-1-1V.89L23,5.76Zm0,0"/><path class="cls-5" d="M11.3,12.4v-.22a3.07,3.07,0,0,1,1.34-2.45A2.17,2.17,0,0,0,13.55,8a1.3,1.3,0,0,0-1.4-1.36c-1,0-1.43.62-1.56,1.53H9.23a2.75,2.75,0,0,1,2.95-2.65A2.5,2.5,0,0,1,15,8a3.09,3.09,0,0,1-1.33,2.52,2.2,2.2,0,0,0-.9,1.76v.12Zm0,3v-2h1.42v2Z"/></svg>