<svg id="图层_1" data-name="图层 1" xmlns="http://www.w3.org/2000/svg" xmlns:xlink="http://www.w3.org/1999/xlink" viewBox="0 0 24 20.55"><defs><style>.cls-1{fill:none;}.cls-2{clip-path:url(#clip-path);}.cls-3{fill:#6a6ae2;}.cls-4{fill:#fff;}.cls-5{fill:#b5b5f2;}</style><clipPath id="clip-path"><rect class="cls-1" x="1" y="0.86" width="22" height="18.83"/></clipPath></defs><title>page</title><g class="cls-2"><path class="cls-3" d="M17.58.87H2a1,1,0,0,0-.71.29A1,1,0,0,0,1,1.87v16.8a1,1,0,0,0,.29.7,1,1,0,0,0,.71.29H22a1,1,0,0,0,.71-.29,1,1,0,0,0,.29-.7V5.74L17.58.87Zm0,0"/></g><path class="cls-4" d="M10.35,13.94V11.08H12.4c1.61,0,2.42-.7,2.42-2.08S14,6.94,12.41,6.94H9.55v7Zm2-3.56h-2V7.64h2A1.87,1.87,0,0,1,13.61,8,1.2,1.2,0,0,1,14,9a1.31,1.31,0,0,1-.4,1,2,2,0,0,1-1.26.34Zm0,0"/><path class="cls-5" d="M18.58,5.77a1.05,1.05,0,0,1-.71-.29,1,1,0,0,1-.29-.71V.87L23,5.74Zm0,0"/></svg>