<svg id="图层_1" data-name="图层 1" xmlns="http://www.w3.org/2000/svg" xmlns:xlink="http://www.w3.org/1999/xlink" viewBox="0 0 24 20.55"><defs><style>.cls-1{fill:none;}.cls-2{clip-path:url(#clip-path);}.cls-3{fill:#fa4e4e;}.cls-4{fill:#ffa4a4;}.cls-5{fill:#fff;}</style><clipPath id="clip-path"><rect class="cls-1" x="1" y="0.86" width="22" height="18.83"/></clipPath></defs><title>pdf</title><g class="cls-2"><path class="cls-3" d="M17.58.87H2a1,1,0,0,0-.71.29A1,1,0,0,0,1,1.87v16.8a1,1,0,0,0,.29.7,1,1,0,0,0,.71.29H22a1,1,0,0,0,.71-.29,1,1,0,0,0,.29-.7V5.74L17.58.87Zm0,0"/></g><path class="cls-4" d="M18.58,5.77a1.05,1.05,0,0,1-.71-.29,1,1,0,0,1-.29-.71V.87L23,5.74Zm0,0"/><path class="cls-5" d="M15.63,16c-1.15,0-2.18-2-2.73-3.22A19.42,19.42,0,0,0,10,11.84,7.48,7.48,0,0,1,6.6,13.23a1.33,1.33,0,0,1-1.37-.94,1.07,1.07,0,0,1,.13-1,2.14,2.14,0,0,1,1.81-.6,11.72,11.72,0,0,1,2.7.38,16.6,16.6,0,0,0,2-1.59c-.28-1.26-.57-3.3.18-4.24a1.44,1.44,0,0,1,1.61-.4,1.46,1.46,0,0,1,1.11,1c.31,1.23-1.11,2.89-2.08,3.87a18.43,18.43,0,0,0,.84,2.54c1.39.62,3,1.52,3.22,2.51a1,1,0,0,1-.32.94,1.2,1.2,0,0,1-.76.31Zm-1.7-2.75c.69,1.4,1.35,2,1.7,2a.33.33,0,0,0,.23-.1c.13-.13.13-.22.11-.29-.07-.36-.65-1-2-1.65ZM7.17,11.4c-.9,0-1.15.22-1.23.31a.46.46,0,0,0,0,.38c.06.22.21.43.68.43A5.36,5.36,0,0,0,9,11.62a10.28,10.28,0,0,0-1.84-.22Zm3.61-.1c.59.16,1.19.36,1.76.57A15.28,15.28,0,0,1,12,10.29c-.41.34-.82.68-1.24,1Zm2.27-5.84a.6.6,0,0,0-.47.22c-.39.47-.42,1.66-.13,3.18C13.56,7.68,14.17,6.6,14,6c0-.09-.09-.34-.6-.48a1,1,0,0,0-.37-.08Zm0,0"/></svg>