<svg id="图层_1" data-name="图层 1" xmlns="http://www.w3.org/2000/svg" xmlns:xlink="http://www.w3.org/1999/xlink" viewBox="0 0 22 18.83"><defs><style>.cls-1{fill:none;}.cls-2{clip-path:url(#clip-path);}.cls-3{fill:#ff9333;}.cls-4{fill:#fff;}.cls-5{fill:#ffca9f;}</style><clipPath id="clip-path"><rect class="cls-1" y="0.01" width="22" height="18.83"/></clipPath></defs><title>ppt</title><g class="cls-2"><path class="cls-3" d="M16.58,0H1A1,1,0,0,0,0,1v16.8a1,1,0,0,0,1,1H21a1,1,0,0,0,1-1V4.89L16.58,0Zm0,0"/></g><path class="cls-4" d="M10.57,5.9v4h4a4,4,0,1,1-4-4Zm1-.84A3.9,3.9,0,0,1,15.44,9H11.55Zm0,0"/><path class="cls-5" d="M17.58,4.91a1,1,0,0,1-.71-.29,1,1,0,0,1-.29-.71V0L22,4.89Zm0,0"/></svg>