<?xml version="1.0" standalone="no"?><!DOCTYPE svg PUBLIC "-//W3C//DTD SVG 1.1//EN" "http://www.w3.org/Graphics/SVG/1.1/DTD/svg11.dtd"><svg t="1629424878144" class="icon" viewBox="0 0 1024 1024" version="1.1" xmlns="http://www.w3.org/2000/svg" p-id="10057" xmlns:xlink="http://www.w3.org/1999/xlink" width="200" height="200"><defs><style type="text/css"></style></defs><path d="M512 784.9984h0.13653333a34.13333333 34.13333333 0 0 0 0-68.26666667l-0.27306666 0.06826667H136.53333333c-18.432 0-34.13333333-15.70133333-34.13333333-34.13333333V273.06666667c0-19.11466667 15.70133333-34.13333333 34.13333333-34.13333334h375.46666667v-0.27306666c0.47786667 0 0.8192 0.27306667 1.29706667 0.27306666a34.13333333 34.13333333 0 0 0 0-68.26666666c-0.47786667 0-0.8192 0.2048-1.29706667 0.2048V170.66666667H102.4c-37.54666667 0-68.26666667 30.72-68.26666667 68.26666666v477.86666667c0 37.54666667 30.72 68.26666667 68.26666667 68.26666667h409.6v-0.06826667zM921.6 170.66666667h-68.13013333a34.13333333 34.13333333 0 0 0-0.13653334 68.26666666h34.13333334c19.11466667 0 34.13333333 15.01866667 34.13333333 34.13333334v409.6c0 18.432-15.01866667 34.13333333-34.13333333 34.13333333h-33.9968a34.13333333 34.13333333 0 0 0-0.13653334 68.26666667h68.26666667c37.54666667 0 68.26666667-30.72 68.26666667-68.26666667V238.93333333c0-37.54666667-30.72-68.26666667-68.26666667-68.26666666z" fill="#2c2c2c" p-id="10058"></path><path d="M204.93653333 443.73333333c-18.77333333 0-34.13333333 15.36-34.13333333 34.13333334s15.36 34.13333333 34.13333333 34.13333333h204.8c18.77333333 0 34.13333333-15.36 34.13333334-34.13333333s-15.36-34.13333333-34.13333334-34.13333334h-204.8z m648.53333334 477.86666667h-136.53333334V102.4h136.46506667c18.77333333 0 34.13333333-15.36 34.13333333-34.13333333s-15.36-34.13333333-34.13333333-34.13333334h-341.33333333c-18.77333333 0-34.13333333 15.36-34.13333334 34.13333334s15.36 34.13333333 34.13333334 34.13333333h136.6016v819.2h-136.53333334c-18.77333333 0-34.13333333 15.36-34.13333333 34.13333333s15.36 34.13333333 34.13333333 34.13333334h341.33333334c18.77333333 0 34.13333333-15.36 34.13333333-34.13333334s-15.36-34.13333333-34.13333333-34.13333333z" fill="#2c2c2c" p-id="10059"></path></svg>