<svg id="图层_1" data-name="图层 1" xmlns="http://www.w3.org/2000/svg" xmlns:xlink="http://www.w3.org/1999/xlink" viewBox="0 0 24 20.55"><defs><style>.cls-1{fill:none;}.cls-2{clip-path:url(#clip-path);}.cls-3{fill:#2695f9;}.cls-4{fill:#fff;}.cls-5{fill:#acd9ff;}</style><clipPath id="clip-path"><rect class="cls-1" x="1" y="0.86" width="22" height="18.83"/></clipPath></defs><title>rtf</title><g class="cls-2"><path class="cls-3" d="M17.58.87H2a1,1,0,0,0-.71.29A1,1,0,0,0,1,1.87v16.8a1,1,0,0,0,.29.7,1,1,0,0,0,.71.29H22a1,1,0,0,0,.71-.29,1,1,0,0,0,.29-.7V5.74L17.58.87Zm0,0"/></g><path class="cls-4" d="M10.13,13.94v-3.1h2.18a1.7,1.7,0,0,1,1,.26,1.18,1.18,0,0,1,.46.92l.09,1a2,2,0,0,0,.29,1h.9a2,2,0,0,1-.38-1.06l-.12-1.11a1.38,1.38,0,0,0-1.15-1.32v0a1.64,1.64,0,0,0,1-.62,1.77,1.77,0,0,0,.34-1.07,1.87,1.87,0,0,0-.65-1.52,2.65,2.65,0,0,0-1.7-.49H9.3v7.21Zm2.18-3.82H10.13V7.44h2.18a1.88,1.88,0,0,1,1.23.34,1.22,1.22,0,0,1,.38,1,1.24,1.24,0,0,1-.39,1,1.83,1.83,0,0,1-1.22.37Zm0,0"/><path class="cls-5" d="M18.58,5.77a1.05,1.05,0,0,1-.71-.29,1,1,0,0,1-.29-.71V.87L23,5.74Zm0,0"/></svg>