<svg id="图层_1" data-name="图层 1" xmlns="http://www.w3.org/2000/svg" viewBox="0 0 24 24"><defs><style>.cls-1{fill:#90969d;}</style></defs><title>皮肤</title><path class="cls-1" d="M22.67,7.45,19.09,3.69a1.55,1.55,0,0,0-1.16-.5h-.88A1.59,1.59,0,0,0,15.69,4a4.16,4.16,0,0,1-3.57,1.81A4.28,4.28,0,0,1,8.57,4a1.46,1.46,0,0,0-1.3-.81H6.49a1.48,1.48,0,0,0-1.23.5L1.65,7.45a1.7,1.7,0,0,0-.48,1.22,1.59,1.59,0,0,0,.48,1.14L3.74,12a1.48,1.48,0,0,0,1,.47,1.55,1.55,0,0,0,.81-.26v7.55a3.11,3.11,0,0,0,3,3.18H15.7a3.11,3.11,0,0,0,3-3.18V12.22a1.5,1.5,0,0,0,.81.26,1.42,1.42,0,0,0,1-.47l2.09-2.2a1.72,1.72,0,0,0,.48-1.22,1.66,1.66,0,0,0-.48-1.14ZM5.74,10.19a1.65,1.65,0,0,0-.94.31L3,8.63,6.42,5.06h.73a6,6,0,0,0,5,2.61,5.92,5.92,0,0,0,5-2.61h.69l3.43,3.57L19.51,10.5a1.5,1.5,0,0,0-.94-.31,1.67,1.67,0,0,0-1.64,1.72v7.86a1.26,1.26,0,0,1-1.23,1.3H8.62a1.27,1.27,0,0,1-1.24-1.3V11.91a1.67,1.67,0,0,0-1.64-1.72Zm0,0"/></svg>