<svg id="图层_1" data-name="图层 1" xmlns="http://www.w3.org/2000/svg" xmlns:xlink="http://www.w3.org/1999/xlink" viewBox="0 0 24 20.55"><defs><style>.cls-1{fill:none;}.cls-2{clip-path:url(#clip-path);}.cls-3{fill:#e269df;}.cls-4{fill:#dce1fe;}.cls-5{fill:#fff;}</style><clipPath id="clip-path"><rect class="cls-1" x="1" y="0.86" width="22" height="18.83"/></clipPath></defs><title>视频</title><g class="cls-2"><path class="cls-3" d="M17.58.87H2a1,1,0,0,0-1,1v16.8a1,1,0,0,0,1,1H22a1,1,0,0,0,.71-.29,1,1,0,0,0,.29-.71V5.74L17.58.87Zm0,0"/></g><path class="cls-4" d="M18.58,5.79a1,1,0,0,1-1-1V.89L23,5.76Zm0,0"/><path class="cls-5" d="M17.14,7.24C16.9,7.08,15,8,15,8V7.89a1.42,1.42,0,0,0-1.43-1.42H8.1A1.42,1.42,0,0,0,6.67,7.89v4.77A1.42,1.42,0,0,0,8.1,14.08h5.51A1.42,1.42,0,0,0,15,12.66v-.12s1.87.9,2.11.74a26,26,0,0,0,0-6ZM9.71,12.56V8l3.62,2.29Zm0,0"/></svg>