<svg id="图层_1" data-name="图层 1" xmlns="http://www.w3.org/2000/svg" xmlns:xlink="http://www.w3.org/1999/xlink" viewBox="0 0 24 20.55"><defs><style>.cls-1{fill:none;}.cls-2{clip-path:url(#clip-path);}.cls-3{fill:#2695f9;}.cls-4{fill:#fff;}.cls-5{fill:#acd9ff;}</style><clipPath id="clip-path"><rect class="cls-1" x="1" y="0.86" width="22" height="18.83"/></clipPath></defs><title>word</title><g class="cls-2"><path class="cls-3" d="M17.58.87H2a1,1,0,0,0-.71.29A1,1,0,0,0,1,1.87v16.8a1,1,0,0,0,.29.7,1,1,0,0,0,.71.29H22a1,1,0,0,0,.71-.29,1,1,0,0,0,.29-.7V5.74L17.58.87Zm0,0"/></g><path class="cls-4" d="M10.53,13.94l1.6-5.83h0l1.59,5.83h.89l2-7h-.91l-1.53,5.87h0L12.58,6.94h-.87l-1.6,5.87h0L8.53,6.94h-.9l2,7Zm0,0"/><path class="cls-5" d="M18.58,5.77a1.05,1.05,0,0,1-.71-.29,1,1,0,0,1-.29-.71V.87L23,5.74Zm0,0"/></svg>