<svg id="图层_1" data-name="图层 1" xmlns="http://www.w3.org/2000/svg" xmlns:xlink="http://www.w3.org/1999/xlink" viewBox="0 0 24 20.55"><defs><style>.cls-1{fill:none;}.cls-2{clip-path:url(#clip-path);}.cls-3{fill:#f48337;}.cls-4{fill:#f8c9a4;}</style><clipPath id="clip-path"><rect class="cls-1" x="1" y="1.28" width="22" height="18"/></clipPath></defs><title>zip</title><g class="cls-2"><path class="cls-3" d="M12.25,8.34v.78h2.13V8.34ZM23,5.63H18.61a1.42,1.42,0,0,1-.86-.26.79.79,0,0,1-.37-.64V1.28H14.94v.79H13.31v.78h1.6v.78h-1.6v.81h1.6V5.2h-1.6V6h1.6V9.51c0,.22-.24.4-.53.4H12.25a.62.62,0,0,1-.38-.12.33.33,0,0,1-.15-.28V6.77h1.59V6H11.72V5.2h1.59V4.44H11.72V3.63h1.59V2.85H11.72V2.07h1.59V1.28H2.22c-.67,0-1.22.41-1.22.9V18.4a.89.89,0,0,0,.61.77l.12,0h0l.12,0H21.76c.68,0,1.22-.41,1.22-.9V5.64ZM12.25,9.12h2.13V8.34H12.25Zm0-.78v.78h2.13V8.34Zm0,0"/></g><path class="cls-4" d="M23,5.64H18.61c-.68,0-1.22-.4-1.22-.9V1.28Zm0,0"/></svg>